<?xml version="1.0" encoding="UTF-8" standalone="no"?>
<!-- Created with Inkscape (http://www.inkscape.org/) -->

<svg
   xmlns:dc="http://purl.org/dc/elements/1.1/"
   xmlns:cc="http://creativecommons.org/ns#"
   xmlns:rdf="http://www.w3.org/1999/02/22-rdf-syntax-ns#"
   xmlns:svg="http://www.w3.org/2000/svg"
   xmlns="http://www.w3.org/2000/svg"
   xmlns:sodipodi="http://sodipodi.sourceforge.net/DTD/sodipodi-0.dtd"
   xmlns:inkscape="http://www.inkscape.org/namespaces/inkscape"
   id="svg24159"
   viewBox="0 0 48 48"
   version="1.0"
   inkscape:version="0.92.3 (2405546, 2018-03-11)"
   sodipodi:docname="skull.svg"
   width="48"
   height="48">
  <defs
     id="defs1027" />
  <sodipodi:namedview
     pagecolor="#ffffff"
     bordercolor="#666666"
     borderopacity="1"
     objecttolerance="10"
     gridtolerance="10"
     guidetolerance="10"
     inkscape:pageopacity="0"
     inkscape:pageshadow="2"
     inkscape:window-width="1510"
     inkscape:window-height="877"
     id="namedview1025"
     showgrid="false"
     inkscape:zoom="10"
     inkscape:cx="8.564092"
     inkscape:cy="23.132438"
     inkscape:window-x="297"
     inkscape:window-y="46"
     inkscape:window-maximized="0"
     inkscape:current-layer="svg24159" />
  <g
     id="layer1"
     transform="matrix(0.12143749,0,0,0.12592788,-0.38246698,-1.1972282)">
    <g
       id="g879"
       transform="matrix(0.652,0,0,0.652,-51.231,-96.825)">
      <g
         id="g670"
         style="fill:#000000;stroke:#000000;stroke-opacity:0.99123003"
         transform="translate(87.13,195.45)">
        <path
           id="path584"
           style="fill:#000000;fill-rule:evenodd;stroke:#000000;stroke-width:1.00000003pt;stroke-opacity:0.99123003"
           d="m 294.9,259.71 c -9.7,7.37 -11.86,9.85 -17.22,18.01 -1.94,3.15 -5.56,10.51 -6.55,15.44 -0.99,4.94 -1.73,12.1 -1.72,15.9 0.01,12.85 4.1,20.91 8.57,20.63 3.99,-0.46 9.07,-4.62 16.77,-14.08"
           inkscape:connector-curvature="0" />
        <path
           id="path585"
           style="fill:#000000;fill-rule:evenodd;stroke:#000000;stroke-width:1.00000003pt;stroke-linejoin:bevel;stroke-opacity:0.99123003"
           d="m 294.9,259.71 c -9.7,7.37 -11.86,9.85 -17.22,18.01 -1.94,3.15 -5.56,10.51 -6.55,15.44 -0.99,4.94 -1.73,12.1 -1.72,15.9 0.01,12.85 4.1,20.91 8.57,20.63 3.99,-0.46 9.07,-4.62 16.77,-14.08"
           transform="matrix(-1,0,0,1,596.77,0.2081)"
           inkscape:connector-curvature="0" />
        <path
           id="path586"
           style="fill:#000000;fill-rule:evenodd;stroke:#000000;stroke-width:1.00000003pt;stroke-opacity:0.99123003"
           d="m 211.89,203.56 c 13.46,-2.36 26.5,-3.88 39.96,-5.41 17.62,-4.44 26.51,15.68 21.65,30.81 -6.11,13.46 -14.71,25.25 -24.56,36.63 -7.63,8.6 -16.73,9.99 -25.4,7.07 -6.99,-1.94 -13.46,-6.24 -20.4,-16.23 -3.05,-8.6 -5.68,-13.05 -9.57,-23.73 -3.05,-9.85 1.7,-24.6 18.32,-29.14 z"
           transform="translate(0.58872,-3.0518e-5)"
           inkscape:connector-curvature="0" />
        <path
           id="path587"
           style="fill:#000000;fill-rule:evenodd;stroke:#000000;stroke-width:1.00000003pt;stroke-opacity:0.99123003"
           d="m 211.89,203.56 c 13.46,-2.36 26.5,-3.88 39.96,-5.41 17.62,-4.44 26.51,15.68 21.65,30.81 -6.11,13.46 -14.71,25.25 -24.56,36.63 -7.63,8.6 -16.73,9.99 -25.4,7.07 -6.99,-1.94 -13.46,-6.24 -20.4,-16.23 -3.05,-8.6 -5.68,-13.05 -9.57,-23.73 -3.05,-9.85 1.7,-24.6 18.32,-29.14 z"
           transform="matrix(-1,0,0,1,596.45,-3.0518e-5)"
           inkscape:connector-curvature="0" />
      </g>
      <g
         id="g775"
         style="stroke:#000000;stroke-opacity:0.99123003"
         transform="translate(87.13,195.45)">
        <g
           id="g740"
           style="fill:none;stroke:#000000;stroke-opacity:0.99123003">
          <g
             id="g652"
             style="fill:none;stroke:#000000;stroke-opacity:0.99123003">
            <path
               id="path611"
               style="fill:none;stroke:#000000;stroke-width:6.25;stroke-opacity:0.99123003"
               d="m 212.23,318.53 c 5.69,13.34 7.45,18.41 11.55,31.72 3.5,12.29 4.79,19.79 6.95,37.26"
               inkscape:connector-curvature="0" />
            <path
               id="path612"
               style="fill:none;stroke:#000000;stroke-width:6.25;stroke-opacity:0.99123003"
               d="m 212.23,318.53 c 5.69,13.34 7.45,18.41 11.55,31.72 3.5,12.29 4.79,19.79 6.95,37.26"
               transform="matrix(-1,0,0,1,596.32,-0.73589)"
               inkscape:connector-curvature="0" />
            <g
               id="g637"
               style="fill:none;stroke:#000000;stroke-opacity:0.99123003">
              <path
                 id="path588"
                 style="fill:none;stroke:#000000;stroke-width:5;stroke-opacity:0.99123003"
                 d="m 236.52,349.73 c 14.71,9.03 40.16,10.42 62.95,10.01 25.4,-0.13 47.13,-1.96 61.41,-10.6"
                 inkscape:connector-curvature="0" />
              <path
                 id="path608"
                 style="fill:none;stroke:#000000;stroke-width:5;stroke-opacity:0.99123003"
                 d="m 241.67,373.28 c 16.23,10.21 35.33,13.71 57.32,12.88 22.85,-0.56 40.35,-2.48 56,-13.17"
                 inkscape:connector-curvature="0" />
              <g
                 id="g625"
                 style="fill:none;stroke:#000000;stroke-opacity:0.99123003">
                <path
                   id="path609"
                   style="fill:none;stroke:#000000;stroke-width:6.25;stroke-opacity:0.99123003"
                   d="m 229.89,385.64 c 17.37,20.95 41.61,24.59 69.18,25.32 29.51,1.08 59.16,-10.65 66.81,-25.32"
                   inkscape:connector-curvature="0" />
                <g
                   id="g615"
                   style="fill:none;stroke:#000000;stroke-opacity:0.99123003">
                  <path
                     id="path589"
                     style="fill:none;stroke:#000000;stroke-width:5;stroke-opacity:0.99123003"
                     d="m 241.44,354.26 -0.41,41.21"
                     inkscape:connector-curvature="0" />
                  <path
                     id="path592"
                     style="fill:none;stroke:#000000;stroke-width:5;stroke-opacity:0.99123003"
                     d="m 254.97,358.63 -0.21,44.12"
                     inkscape:connector-curvature="0" />
                  <path
                     id="path593"
                     style="fill:none;stroke:#000000;stroke-width:5;stroke-opacity:0.99123003"
                     d="m 269.96,360.5 -0.42,46.21"
                     inkscape:connector-curvature="0" />
                  <path
                     id="path594"
                     style="fill:none;stroke:#000000;stroke-width:5;stroke-opacity:0.99123003"
                     d="m 283.49,361.54 -0.21,46.83"
                     inkscape:connector-curvature="0" />
                  <path
                     id="path595"
                     style="fill:none;stroke:#000000;stroke-width:5;stroke-opacity:0.99123003"
                     d="m 298.68,361.96 v 46.83"
                     inkscape:connector-curvature="0" />
                  <path
                     id="path598"
                     style="fill:none;stroke:#000000;stroke-width:5;stroke-opacity:0.99123003"
                     d="m 313.25,361.75 0.21,46.83"
                     inkscape:connector-curvature="0" />
                  <path
                     id="path599"
                     style="fill:none;stroke:#000000;stroke-width:5;stroke-opacity:0.99123003"
                     d="m 326.78,360.5 0.42,46"
                     transform="translate(-0.41626,-3.0518e-5)"
                     inkscape:connector-curvature="0" />
                  <path
                     id="path604"
                     style="fill:none;stroke:#000000;stroke-width:5;stroke-opacity:0.99123003"
                     d="m 341.56,358 0.21,44.13"
                     inkscape:connector-curvature="0" />
                  <path
                     id="path606"
                     style="fill:none;stroke:#000000;stroke-width:5;stroke-opacity:0.99123003"
                     d="m 355.3,352.59 0.41,41.63"
                     inkscape:connector-curvature="0" />
                </g>
              </g>
            </g>
          </g>
          <g
             id="g675"
             style="fill:none;stroke:#000000;stroke-opacity:0.99123003">
            <path
               id="path573"
               style="fill:none;stroke:#000000;stroke-width:12.5;stroke-linecap:round;stroke-linejoin:round;stroke-opacity:0.99123003"
               d="m 171.5,235.56 c -19.14,-18.6 -32.51,-50.89 -34.37,-85.75 -2.01,-38.42 18.22,-76.571 48.54,-98.32 33.97,-23.91 90.77,-30.522 126.08,-28.738 23.92,0.017 77.21,12.42 96.02,26.428 32.99,23.99 50.68,58.04 51.91,96.85 1.81,38.98 -14.61,68.67 -34.71,87.21"
               inkscape:connector-curvature="0" />
            <path
               id="path580"
               style="fill:none;stroke:#000000;stroke-width:12.5;stroke-linejoin:round;stroke-opacity:0.99123003"
               d="m 172.66,126.27 c -7.75,6.78 -6.77,16.97 -5.38,32.19 1.11,11.56 8.48,22.94 8.87,33.5 2.71,22.28 -3.88,44.57 -6.98,62.78 -2.13,20.93 3.88,38.96 11.63,45.93 7.75,6.88 17.76,9.73 28.27,12.94 9.55,2.49 14.5,6.84 21.73,12.23 8.6,9.13 10.66,16.69 10.46,25.99"
               inkscape:connector-curvature="0" />
            <path
               id="path581"
               style="fill:none;stroke:#000000;stroke-width:12.5;stroke-linejoin:round;stroke-opacity:0.99123003"
               d="m 172.66,126.27 c -7.75,6.78 -6.77,16.97 -5.38,32.19 1.11,11.56 8.48,22.94 8.87,33.5 2.71,22.28 -3.88,44.57 -6.98,62.78 -2.13,20.93 3.88,38.96 11.63,45.93 7.75,6.88 21.94,10.58 28.27,12.94 7.38,2.58 14.92,7.25 21.73,12.64 8.19,7.89 10.66,16.28 10.46,25.58"
               transform="matrix(-1,0,0,1,597.72,-0.58139)"
               inkscape:connector-curvature="0" />
            <path
               id="path613"
               style="fill:none;stroke:#000000;stroke-width:12.5;stroke-opacity:0.99123003"
               d="m 194.82,310.96 c 6.94,16.79 14.29,33.16 14.99,50.37 -3.19,13.87 -2.22,30.25 1.25,43.29 4.44,17.9 21.78,39.13 39.13,46.21 17.76,6.45 28.86,8.12 48.7,8.12"
               inkscape:connector-curvature="0" />
            <path
               id="path614"
               style="fill:none;stroke:#000000;stroke-width:12.5;stroke-opacity:0.99123003"
               d="m 194.82,310.96 c 6.94,16.79 14.29,33.16 14.99,50.37 -3.19,13.87 -2.22,30.25 1.25,43.29 4.44,17.9 21.99,38.51 39.34,45.59 17.34,7.07 28.44,8.74 48.28,8.74"
               transform="matrix(-1,0,0,1,596.74,-3.0518e-5)"
               inkscape:connector-curvature="0" />
          </g>
        </g>
        <g
           id="g770"
           style="stroke:#000000;stroke-opacity:0.99123003">
          <path
             id="path765"
             style="fill:none;stroke:#000000;stroke-width:12.5;stroke-linejoin:round;stroke-opacity:0.99123003"
             d="m 391.31,389.64 68.27,31.63 c 8.32,3.47 14.98,2.36 21.23,0.42 9.85,-2.91 17.62,-1.25 25.81,2.08 9.85,5 10.13,12.07 3.75,19.15 -5.83,6.8 -11.66,10.27 -18.74,17.07 -1.52,10.96 -0.55,21.09 -5.41,31.22 -6.1,8.88 -12.63,7.35 -22.89,-2.08 -10.41,-8.05 -6.67,-16.93 -21.65,-29.97 L 378.4,426.27"
             inkscape:connector-curvature="0" />
          <path
             id="path766"
             style="fill:none;stroke:#000000;stroke-width:12.5;stroke-linejoin:round;stroke-opacity:0.99123003"
             d="m 204.81,389.22 c -22.75,12.07 -43.43,23.31 -69.52,33.3 -21.23,5.28 -20.39,-7.77 -46.205,0.84 -7.354,5.82 -7.215,14.15 -1.249,20.39 6.938,6.8 11.795,11.1 17.904,17.07 1.94,8.6 2.22,15.96 3.33,26.23 4.16,12.62 13.32,11.93 21.23,5.83 3.47,-4.31 7.77,-8.19 10.4,-12.91 3.61,-6.24 7.64,-13.32 12.49,-19.15 l 62.86,-33.3"
             inkscape:connector-curvature="0" />
          <path
             id="path767"
             style="fill:none;stroke:#000000;stroke-width:12.5;stroke-linecap:square;stroke-linejoin:round;stroke-opacity:0.99123003"
             d="m 401.3,321.36 c 25.81,-12.76 47.04,-23.03 70.35,-34.55 14.29,-11.93 10.69,-23.45 22.07,-32.05 11.23,-10.69 18.73,-8.05 22.89,-2.08 4.02,10.13 5.97,20.26 5.41,30.8 10.69,9.86 16.38,15.54 22.48,24.56 0.83,11.38 -9.16,16.1 -21.23,16.24 -15.82,2.91 -18.32,-7.08 -36.22,0 l -94.49,44.54"
             inkscape:connector-curvature="0" />
          <path
             id="path769"
             style="fill:none;stroke:#000000;stroke-width:12.5;stroke-linejoin:round;stroke-opacity:0.99123003"
             d="m 197.22,322.35 c -26.1,-12.75 -47.78,-22.27 -73.59,-36.5 -14.03,-11.18 -9.52,-23.84 -26.492,-34.14 -7.457,-3.73 -12.853,-5.4 -18.839,4.71 -3.826,9.02 -3.532,18.64 -4.121,27.96 -6.672,7.16 -14.227,11.38 -19.722,20.31 -7.947,12.76 4.121,16.98 10.597,18.55 18.447,4.61 25.119,-3.73 42.097,-0.3 33.06,15.41 66.42,31.4 98.31,47.1"
             inkscape:connector-curvature="0" />
        </g>
      </g>
    </g>
  </g>
  <metadata
     id="metadata1022">
    <rdf:RDF>
      <cc:Work>
        <dc:format>image/svg+xml</dc:format>
        <dc:type
           rdf:resource="http://purl.org/dc/dcmitype/StillImage" />
        <cc:license
           rdf:resource="http://creativecommons.org/publicdomain/zero/1.0/" />
        <dc:publisher>
          <cc:Agent
             rdf:about="http://openclipart.org/">
            <dc:title>Openclipart</dc:title>
          </cc:Agent>
        </dc:publisher>
        <dc:title />
        <dc:date>2006-11-16T21:17:17</dc:date>
        <dc:description>a skull and crossbones i found in the wikicommons...
\n
\nurl - http://commons.wikimedia.org/wiki/Image:Skull_and_crossbones.svg</dc:description>
        <dc:source>https://openclipart.org/detail/1448/skull-and-crossbones-by-ryanlerch</dc:source>
        <dc:creator>
          <cc:Agent>
            <dc:title>ryanlerch</dc:title>
          </cc:Agent>
        </dc:creator>
        <dc:subject>
          <rdf:Bag>
            <rdf:li>crossbones</rdf:li>
            <rdf:li>danger</rdf:li>
            <rdf:li>externalsource</rdf:li>
            <rdf:li>pirate</rdf:li>
            <rdf:li>poison</rdf:li>
            <rdf:li>skull</rdf:li>
            <rdf:li>toxic</rdf:li>
            <rdf:li>wikimedia commons</rdf:li>
          </rdf:Bag>
        </dc:subject>
      </cc:Work>
      <cc:License
         rdf:about="http://creativecommons.org/publicdomain/zero/1.0/">
        <cc:permits
           rdf:resource="http://creativecommons.org/ns#Reproduction" />
        <cc:permits
           rdf:resource="http://creativecommons.org/ns#Distribution" />
        <cc:permits
           rdf:resource="http://creativecommons.org/ns#DerivativeWorks" />
      </cc:License>
    </rdf:RDF>
  </metadata>
</svg>
